HIERARCHY
ROOT Hips
{
  OFFSET 3.13124 94.3669 -3.18751
  CHANNELS  6 Xposition Yposition Zposition Zrotation Xrotation Yrotation
  JOINT LeftUpLeg
  {
    OFFSET 8.64259 1.95398 -2.38835
    CHANNELS 3 Zrotation Xrotation Yrotation
    JOINT LeftLeg
    {
      OFFSET 43.7702 0 0
      CHANNELS 3 Zrotation Xrotation Yrotation
      JOINT LeftFoot
      {
        OFFSET 40.6238 0 0
        CHANNELS 3 Zrotation Xrotation Yrotation
        JOINT LeftToeBase
        {
          OFFSET 12.7242 0 0
          CHANNELS 3 Zrotation Xrotation Yrotation
          End Site
          {
            OFFSET 0 0 0
          }
        }
      }
    }
  }
  JOINT RightUpLeg
  {
    OFFSET -8.2249 1.95398 -2.59336
    CHANNELS 3 Zrotation Xrotation Yrotation
    JOINT RightLeg
    {
      OFFSET 43.5653 0 0
      CHANNELS 3 Zrotation Xrotation Yrotation
      JOINT RightFoot
      {
        OFFSET 40.6238 0 0
        CHANNELS 3 Zrotation Xrotation Yrotation
        JOINT RightToeBase
        {
          OFFSET 12.7242 0 0
          CHANNELS 3 Zrotation Xrotation Yrotation
          End Site
          {
            OFFSET 0 0 0
          }
        }
      }
    }
  }
  JOINT Spine
  {
    OFFSET 0.165834 0.87714 6.61349
    CHANNELS 3 Zrotation Xrotation Yrotation
    JOINT Spine1
    {
      OFFSET 7.38962 1.71661e-005 0
      CHANNELS 3 Zrotation Xrotation Yrotation
      JOINT Spine2
      {
        OFFSET 11.9445 1.14441e-005 0
        CHANNELS 3 Zrotation Xrotation Yrotation
        JOINT Spine3
        {
          OFFSET 14.7254 4.19617e-005 0
          CHANNELS 3 Zrotation Xrotation Yrotation
          JOINT Spine4
          {
            OFFSET 10.9679 0 0
            CHANNELS 3 Zrotation Xrotation Yrotation
            JOINT RightShoulder
            {
              OFFSET 2.46616 -1.6653 3.69651
              CHANNELS 3 Zrotation Xrotation Yrotation
              JOINT RightArm
              {
                OFFSET 13.0012 0 0
                CHANNELS 3 Zrotation Xrotation Yrotation
                JOINT RightForeArm
                {
                  OFFSET 28.7848 1.52588e-005 0
                  CHANNELS 3 Zrotation Xrotation Yrotation
                  JOINT RightHand
                  {
                    OFFSET 26.5688 1.52588e-005 0
                    CHANNELS 3 Zrotation Xrotation Yrotation
                    End Site
                    {
                      OFFSET 0 0 0
                    }
                  }
                }
              }
            }
            JOINT LeftShoulder
            {
              OFFSET 2.38034 -1.29275 -3.75231
              CHANNELS 3 Zrotation Xrotation Yrotation
              JOINT LeftArm
              {
                OFFSET 16.3182 6.10352e-005 0
                CHANNELS 3 Zrotation Xrotation Yrotation
                JOINT LeftForeArm
                {
                  OFFSET 27.0901 0 0
                  CHANNELS 3 Zrotation Xrotation Yrotation
                  JOINT LeftHand
                  {
                    OFFSET 24.5451 1.52588e-005 0
                    CHANNELS 3 Zrotation Xrotation Yrotation
                    End Site
                    {
                      OFFSET 0 0 0
                    }
                  }
                }
              }
            }
            JOINT Neck
            {
              OFFSET 5.0226 -0.0266342 0
              CHANNELS 3 Zrotation Xrotation Yrotation
              JOINT Head
              {
                OFFSET 6.69363 2.86102e-005 0
                CHANNELS 3 Zrotation Xrotation Yrotation
                End Site
                {
                  OFFSET 0 0 0
                }
              }
            }
          }
        }
      }
    }
  }
}
MOTION
Frames:	13
Frame Time:	0.0333333
4.80146 84.5259 -149.358 65.1116 -68.8025 81.8664 -168.342 39.3611 105.237 -61.4778 -29.8211 -27.2534 74.5693 21.0665 9.82148 28.7808 5.03288e-006 6.34818e-006 -169.082 55.2935 70.735 -76.295 -40.9519 -3.71098 -10.8606 34.3151 73.9594 28.7808 1.54818e-005 2.79948e-005 -2.06013 9.03238 -83.5987 8.65478 1.00186 4.54542 -3.02356 1.20074 4.49706 -25.495 -0.408961 4.63631 -5.48238 -0.408961 4.63631 99.9128 -25.8533 -87.036 20.3589 -43.1205 -2.11031 -0.716926 -1.69609 -69.1787 -5.37983 -0.320016 -0.0162407 -85.4705 -43.6586 84.5914 14.8145 -49.0077 -9.88826 -167.606 56.2658 179.966 -5.52693 -0.536347 13.7102 -27.4565 -3.42698 -11.2987 1.50303 -4.57833 2.7859 
4.30907 86.1844 -149.042 65.9626 -69.7611 85.2811 -168.833 38.7056 107.206 -57.2841 -30.865 -23.5176 71.9264 19.9187 9.78145 28.7808 5.03288e-006 6.34818e-006 -170.177 60.8054 74.8095 -90.9635 -58.0367 -6.38729 -8.67497 41.7401 82.2269 28.7808 1.54818e-005 2.79948e-005 -2.41029 8.84046 -83.589 8.99963 0.140549 4.89445 -2.68049 0.35558 4.88356 -25.1456 -1.33527 4.71132 -5.13294 -1.33527 4.71131 101.113 -25.1854 -84.4284 19.5851 -39.1296 0.28183 5.66719 -5.21157 -61.8495 -5.37983 -0.320016 -0.0162407 -86.7461 -41.6726 82.1515 18.7705 -46.907 -10.2871 -171.902 46.7712 179.99 -21.7111 -0.797326 -0.301945 -29.081 -1.27382 -12.2791 3.68631 -2.54011 4.29473 
3.71465 87.5721 -148.622 67.5167 -71.4344 89.1176 -168.712 37.5981 109.587 -53.351 -30.8009 -19.9463 70.161 17.7502 9.0115 28.7808 5.03288e-006 6.34818e-006 -169.684 67.5961 75.9615 -105.81 -54.7379 -6.48793 -15.9378 40.5562 91.0421 28.7808 1.54818e-005 2.79948e-005 -2.7161 8.68949 -83.3659 9.26171 -0.411034 5.09136 -2.41919 -0.186827 5.10447 -24.8833 -1.9205 4.73399 -4.87064 -1.92049 4.73397 102.068 -24.0887 -82.3158 18.1356 -31.4045 0.0446691 13.5078 -7.84756 -50.8185 -5.37983 -0.320016 -0.0162407 -88.1114 -40.6019 79.6526 9.93838 -52.491 -26.4417 -167.759 38.4207 -179.718 -29.9701 2.51774 -15.0923 -29.4737 0.0245317 -12.2322 5.48434 -1.16536 4.61117 
3.43637 89.0706 -148.245 70.8225 -73.651 94.8427 -167.676 35.9376 112.088 -49.3965 -30.8287 -17.3092 67.9933 16.868 8.93672 28.7808 5.03288e-006 6.34818e-006 -166.88 71.9223 73.622 -114.741 -49.7457 -6.08456 -13.8558 40.5122 87.9864 28.7808 1.54818e-005 2.79948e-005 -2.90876 8.55698 -83.3345 9.50593 -0.916185 5.29501 -2.17562 -0.682584 5.33004 -24.6398 -2.46345 4.77697 -4.62712 -2.46345 4.77699 101.959 -24.5537 -82.5556 15.272 -20.9407 -0.449384 18.9754 -7.50657 -38.8602 -5.37983 -0.320016 -0.0162407 -90.3984 -40.0756 75.6927 7.32522 -51.5658 -35.3819 -171.217 40.4166 -178.291 -36.4255 3.92041 -17.4295 -28.5052 1.55425 -13.5798 5.38516 0.518372 7.18719 
3.10072 90.5671 -147.914 75.1484 -76.0975 102.074 -166.377 35.0085 114.934 -45.6966 -30.9194 -14.2886 65.4642 15.6063 8.69742 28.7808 5.03288e-006 6.34818e-006 -160.233 73.5527 66.6618 -117.43 -46.4683 -5.74902 -12.1243 41.6947 87.1981 28.7808 1.54818e-005 2.79948e-005 -3.11561 8.43257 -83.4511 9.73938 -1.44277 5.22512 -1.94149 -1.21173 5.2833 -24.4155 -2.9449 4.55228 -4.40282 -2.94491 4.55228 101.9 -24.6247 -82.689 12.2603 -9.8325 -2.58422 20.5994 -5.28644 -27.4601 -5.37983 -0.320016 -0.0162407 -92.1263 -39.3231 72.5783 1.65022 -49.123 -44.2243 -173.249 39.06 -177.079 -37.343 4.67022 -19.4065 -26.21 2.77551 -13.9123 4.4076 2.04897 8.82873 
2.72447 91.8002 -147.807 79.5643 -77.7394 109.418 -165.738 34.853 117.482 -42.8065 -32.9285 -12.3573 62.9259 15.0201 8.81373 28.7808 5.03288e-006 6.34818e-006 -145.878 74.5785 51.1186 -114.559 -35.9294 -4.54337 -14.5823 35.2081 81.1172 28.7808 1.54818e-005 2.79948e-005 -3.50382 8.39801 -83.6846 9.79347 -2.08115 5.09797 -1.88614 -1.85508 5.18431 -24.3751 -3.51584 4.23918 -4.36247 -3.51583 4.23917 102.124 -25.0385 -82.1817 10.04 1.66008 -6.36753 18.7486 -2.71692 -17.1235 -5.37983 -0.320016 -0.0162407 -94.4331 -38.2681 68.3484 -4.42177 -46.5578 -51.8803 -172.755 44.3331 -176.788 -30.9173 3.86379 -19.8409 -23.6502 3.63266 -15.4774 4.67787 3.29966 11.4498 
2.65913 92.854 -147.967 84.8682 -78.8564 118.049 -165.19 33.5818 119.31 -37.8221 -39.5483 -12.1433 61.0912 16.411 10.0459 28.7808 5.03288e-006 6.34818e-006 -134.821 72.368 37.8466 -107.615 -30.4605 -3.85385 -13.63 33.5958 77.0493 28.7808 1.54818e-005 2.79948e-005 -3.76682 8.52068 -84.3952 9.58582 -2.81885 4.9134 -2.0918 -2.60015 5.03237 -24.6016 -4.1642 3.84102 -4.58891 -4.16421 3.84101 102.002 -26.179 -82.4404 7.52786 10.9402 -9.24052 15.04 -1.12675 -10.426 -5.37983 -0.320016 -0.0162407 -97.1439 -36.7731 63.1965 -9.47281 -43.9652 -57.5617 -170.733 42.9704 -177.699 -22.8429 3.0812 -21.7235 -19.7037 3.9167 -17.4973 3.55123 4.07267 14.2339 
2.91396 93.4202 -148.334 86.62 -80.4927 123.136 -164.663 31.1223 120.447 -30.1952 -47.4783 -13.5097 60.4315 20.8667 12.9613 28.7808 5.03288e-006 6.34818e-006 -126.634 69.791 26.2889 -97.5122 -27.9079 -3.33522 -10.9383 33.4348 72.9198 28.7808 1.54818e-005 2.79948e-005 -3.89288 8.58444 -85.5081 9.54204 -3.53722 4.59913 -2.13277 -3.33162 4.75001 -24.6681 -4.75513 3.32435 -4.65546 -4.75512 3.32433 101.967 -25.8094 -82.5231 5.36829 17.1332 -11.0884 11.8065 -0.36541 -6.49092 -5.37983 -0.320016 -0.0162407 -100.25 -37.9603 58.5909 -12.1023 -40.2805 -62.98 -173.778 43.983 -175.728 -29.1667 5.03204 -25.676 -15.7967 3.78825 -17.7265 2.30322 4.43479 15.6294 
3.12398 93.7033 -148.752 89.4314 -82.964 128.931 -163.736 30.0373 122.089 -23.5016 -47.4049 -11.6794 60.2221 25.6927 16.0018 28.7808 5.03288e-006 6.34818e-006 -120.635 68.3184 16.3568 -86.0014 -20.2023 -2.49389 -8.49306 29.9002 63.9049 28.7808 1.54818e-005 2.79948e-005 -3.95504 8.66058 -86.3147 9.45622 -3.98431 4.27451 -2.21623 -3.7925 4.44546 -24.7708 -5.08408 2.8793 -4.75814 -5.08409 2.87932 102.533 -26.6658 -81.2837 1.56737 21.647 -12.4744 9.71944 -0.0528687 -4.59948 -5.37983 -0.320016 -0.0162407 -101.839 -36.9716 55.5177 -16.6854 -34.9641 -68.5623 -173.779 42.622 -176.273 -26.4999 4.31241 -24.7414 -11.3061 3.71778 -18.8318 1.60802 5.03409 16.8514 
3.13632 93.9737 -149.501 101.392 -86.0217 143.023 -163.036 31.867 124.063 -22.5484 -40.7556 -8.73866 60.0718 27.3529 17.0209 28.7808 5.03288e-006 6.34818e-006 -118.447 67.8769 9.89228 -72.9675 -10.0773 -1.57679 -7.41709 25.4142 54.9163 28.7808 1.54818e-005 2.79948e-005 -4.01381 8.69304 -86.75 9.43264 -4.31251 4.15186 -2.2384 -4.12576 4.33746 -24.8051 -5.36026 2.66299 -4.7925 -5.36025 2.66299 102.79 -26.7197 -80.7272 -0.670466 25.0212 -13.2666 8.09768 0.136371 -3.05996 -5.37983 -0.320016 -0.0162407 -103.418 -35.4816 52.1495 -19.1339 -30.5287 -71.9468 -174.642 40.6828 -176.333 -23.4227 3.11076 -21.4751 -5.79283 3.79339 -20.5575 -0.793259 5.80862 17.9181 
3.37871 94.3259 -150.475 114.017 -88.0515 156.273 -163.326 33.099 123.156 -21.013 -23.8966 -1.93647 58.9897 24.9248 15.6192 28.7808 5.03288e-006 6.34818e-006 -121.933 67.3612 7.3582 -56.8267 -5.50018 -0.971935 -5.6295 21.4153 45.9105 28.7808 1.54818e-005 2.79948e-005 -4.1333 8.72729 -86.9732 9.40243 -4.948 4.35086 -2.26711 -4.75191 4.56429 -24.8517 -6.02597 2.66068 -4.83903 -6.02598 2.66069 102.781 -27.0672 -80.7517 -3.70937 26.761 -12.1025 7.67625 0.211302 -2.3929 -5.37983 -0.320016 -0.0162407 -104.129 -34.6153 50.4959 -22.3602 -25.5694 -76.3766 -175.609 45.5908 -175.557 -28.1899 4.2475 -23.1873 0.266949 3.3778 -21.6806 -3.88674 6.12262 19.0394 
3.65616 93.9971 -150.884 134.313 -89.5421 176.983 -166.399 36.193 121.821 -27.21 -9.55959 6.20501 59.3314 19.2907 11.7681 28.7808 5.03288e-006 6.34818e-006 -125.457 67.9969 5.1884 -42.9911 5.01709 -0.114543 -1.66678 16.76 34.2913 28.7808 1.54818e-005 2.79948e-005 -4.31329 8.84379 -86.7921 9.14998 -5.53045 4.41577 -2.51752 -5.33095 4.65486 -25.1227 -6.60082 2.54604 -5.11003 -6.60081 2.54601 103.469 -27.6156 -79.2908 -6.06203 28.0174 -11.1366 7.28385 0.38213 -1.1123 -5.37983 -0.320016 -0.0162407 -105.013 -33.0631 48.1238 -23.7638 -21.7307 -79.2967 -178.866 47.1811 -173.688 -35.5097 4.31439 -19.079 5.9028 2.76066 -22.0887 -5.23612 6.40264 19.3897 
3.80061 94.016 -151.017 -124.998 -88.0854 -81.4636 -166.747 37.4758 121.41 -31.7263 0.40751 12.0324 58.3034 16.229 9.90937 28.7808 5.03288e-006 6.34818e-006 -129.193 70.0539 5.75624 -31.5657 8.36533 0.241805 2.97448 13.3692 25.6286 28.7808 1.54818e-005 2.79948e-005 -4.39004 8.95043 -86.7443 8.92209 -6.04355 4.33954 -2.74293 -5.84688 4.60145 -25.3701 -7.06709 2.31723 -5.35745 -7.06708 2.31723 103.404 -27.6168 -79.431 -8.60804 29.7504 -9.86929 6.11292 0.476471 0.0361446 -5.37983 -0.320016 -0.0162407 -104.92 -32.2285 47.7621 -23.6396 -18.259 -81.6032 179.079 46.7195 -172.362 -33.1743 4.5609 -21.1461 10.6154 2.97089 -20.9629 -7.45443 6.87275 19.2166 
